{"title":"The Predator 2018 720p HDCAM x264 [MW]","magnet":"magnet:?xt=urn:btih:4c5bcb52a6a989207e077fc59676a7df40374ce5&dn=The+Predator+2018+720p+HDCAM+x264+%5BMW%5D&tr=udp%3A%2F%2Ftracker.leechers-paradise.org%3A6969&tr=udp%3A%2F%2Fzer0day.ch%3A1337&tr=udp%3A%2F%2Fopen.demonii.com%3A1337&tr=udp%3A%2F%2Ftracker.coppersurfer.tk%3A6969&tr=udp%3A%2F%2Fexodus.desync.com%3A6969","uploader":"MFreaky","categoryP":"video","categoryS":"movies","size":"1316827381","seeders":"0","leechers":"0","description":" <a href=\"https://pichub.site/image/EcWh0\" rel=\"nofollow\" target=\"_NEW\">https://pichub.site/image/EcWh0</a> <a href=\"\nhttps://pichub.site/image/EcQfb\" rel=\"nofollow\" target=\"_NEW\">\nhttps://pichub.site/image/EcQfb</a> <a href=\"\nhttps://pichub.site/image/EcboV\" rel=\"nofollow\" target=\"_NEW\">\nhttps://pichub.site/image/EcboV</a> <a href=\"\nhttps://pichub.site/image/EcqVN\" rel=\"nofollow\" target=\"_NEW\">\nhttps://pichub.site/image/EcqVN</a> <a href=\"\nhttps://pichub.site/image/EceWT\" rel=\"nofollow\" target=\"_NEW\">\nhttps://pichub.site/image/EceWT</a> <a href=\"\nhttps://pichub.site/image/Ek4UD\" rel=\"nofollow\" target=\"_NEW\">\nhttps://pichub.site/image/Ek4UD</a>\r\n\r\nIMDB <a href=\"\nhttps://www.imdb.com/title/tt3829266/\" rel=\"nofollow\" target=\"_NEW\">\nhttps://www.imdb.com/title/tt3829266/</a>\r\n\r\nVideo\r\nFormat                                   : AVC\r\nFormat/Info                              : Advanced Video Codec\r\nFormat profile                           : High@L4.1\r\nFormat settings                          : CABAC / 4 Ref Frames\r\nFormat settings, CABAC                   : Yes\r\nFormat settings, RefFrames               : 4 frames\r\nCodec ID                                 : V_MPEG4/ISO/AVC\r\nDuration                                 : 1 h 41 min\r\nBit rate                                 : 1 500 kb/s\r\nWidth                                    : 1 280 pixels\r\nHeight                                   : 524 pixels\r\nDisplay aspect ratio                     : 2.40:1\r\nFrame rate mode                          : Constant\r\nFrame rate                               : 29.970 (30000/1001) FPS\r\nColor space                              : YUV\r\nChroma subsampling                       : 4:2:0\r\nBit depth                                : 8 bits\r\nScan type                                : Progressive\r\nBits/(Pixel*Frame)                       : 0.075\r\nStream size                              : 1.06 GiB (87%)\r\nWriting library                          : x264 core 155 r2901 7d0ff22\r\n\r\nAudio\r\nFormat                                   : AAC\r\nFormat/Info                              : Advanced Audio Codec\r\nFormat profile                           : LC\r\nCodec ID                                 : A_AAC-2\r\nDuration                                 : 1 h 41 min\r\nBit rate                                 : 224 kb/s\r\nChannel(s)                               : 2 channels\r\nChannel positions                        : Front: L R\r\nSampling rate                            : 48.0 kHz\r\nFrame rate                               : 46.875 FPS (1024 SPF)\r\nCompression mode                         : Lossy\r\nStream size                              : 163 MiB (13%)\r\nLanguage                                 : English","last_updated":"2018-09-18T12:02:22.844Z","parsed":{"xt":"urn:btih:4c5bcb52a6a989207e077fc59676a7df40374ce5","dn":"The Predator 2018 720p HDCAM x264 [MW]","tr":["udp://exodus.desync.com:6969","udp://open.demonii.com:1337","udp://tracker.coppersurfer.tk:6969","udp://tracker.leechers-paradise.org:6969","udp://zer0day.ch:1337"],"infoHash":"4c5bcb52a6a989207e077fc59676a7df40374ce5","infoHashBuffer":{"type":"Buffer","data":[76,91,203,82,166,169,137,32,126,7,127,197,150,118,167,223,64,55,76,229]},"name":"The Predator 2018 720p HDCAM x264 [MW]","announce":["udp://exodus.desync.com:6969","udp://open.demonii.com:1337","udp://tracker.coppersurfer.tk:6969","udp://tracker.leechers-paradise.org:6969","udp://zer0day.ch:1337"],"urlList":[]}}